<svg width="31" height="30" viewBox="0 0 31 30" fill="none" xmlns="http://www.w3.org/2000/svg">
<g filter="url(#filter0_d_10662_656)">
<path d="M23.5 7H7.5C6.39543 7 5.5 7.89543 5.5 9V19C5.5 20.1046 6.39543 21 7.5 21H23.5C24.6046 21 25.5 20.1046 25.5 19V9C25.5 7.89543 24.6046 7 23.5 7Z" stroke="#837E9F" stroke-width="2" stroke-linecap="round" stroke-linejoin="round"/>
<path d="M19.5 21V5C19.5 4.46957 19.2893 3.96086 18.9142 3.58579C18.5391 3.21071 18.0304 3 17.5 3H13.5C12.9696 3 12.4609 3.21071 12.0858 3.58579C11.7107 3.96086 11.5 4.46957 11.5 5V21" stroke="#837E9F" stroke-width="2" stroke-linecap="round" stroke-linejoin="round"/>
</g>
<defs>
<filter id="filter0_d_10662_656" x="-0.5" y="0" width="32" height="32" filterUnits="userSpaceOnUse" color-interpolation-filters="sRGB">
<feFlood flood-opacity="0" result="BackgroundImageFix"/>
<feColorMatrix in="SourceAlpha" type="matrix" values="0 0 0 0 0 0 0 0 0 0 0 0 0 0 0 0 0 0 127 0" result="hardAlpha"/>
<feOffset dy="4"/>
<feGaussianBlur stdDeviation="2"/>
<feComposite in2="hardAlpha" operator="out"/>
<feColorMatrix type="matrix" values="0 0 0 0 0 0 0 0 0 0 0 0 0 0 0 0 0 0 0.25 0"/>
<feBlend mode="normal" in2="BackgroundImageFix" result="effect1_dropShadow_10662_656"/>
<feBlend mode="normal" in="SourceGraphic" in2="effect1_dropShadow_10662_656" result="shape"/>
</filter>
</defs>
</svg>
